<svg width="40" height="40" viewBox="0 0 40 40" fill="none" xmlns="http://www.w3.org/2000/svg">
  <!-- Background Circle -->
  <circle cx="20" cy="20" r="18" fill="#2563eb" stroke="#1d4ed8" stroke-width="2"/>
  
  <!-- Tech Circuit Pattern -->
  <g fill="#ffffff" opacity="0.9">
    <!-- Central Chip -->
    <rect x="16" y="16" width="8" height="8" rx="1" fill="#ffffff"/>
    <rect x="17.5" y="17.5" width="5" height="5" rx="0.5" fill="#2563eb"/>
    
    <!-- Connection Lines -->
    <rect x="12" y="19" width="4" height="2" rx="1"/>
    <rect x="24" y="19" width="4" height="2" rx="1"/>
    <rect x="19" y="12" width="2" height="4" rx="1"/>
    <rect x="19" y="24" width="2" height="4" rx="1"/>
    
    <!-- Corner Nodes -->
    <circle cx="12" cy="12" r="2" fill="#ffffff"/>
    <circle cx="28" cy="12" r="2" fill="#ffffff"/>
    <circle cx="12" cy="28" r="2" fill="#ffffff"/>
    <circle cx="28" cy="28" r="2" fill="#ffffff"/>
    
    <!-- Corner Node Centers -->
    <circle cx="12" cy="12" r="1" fill="#2563eb"/>
    <circle cx="28" cy="12" r="1" fill="#2563eb"/>
    <circle cx="12" cy="28" r="1" fill="#2563eb"/>
    <circle cx="28" cy="28" r="1" fill="#2563eb"/>
    
    <!-- Connecting Lines to Corners -->
    <rect x="12" y="14" width="2" height="3" rx="1" transform="rotate(45 13 15.5)"/>
    <rect x="26" y="14" width="2" height="3" rx="1" transform="rotate(-45 27 15.5)"/>
    <rect x="12" y="23" width="2" height="3" rx="1" transform="rotate(-45 13 24.5)"/>
    <rect x="26" y="23" width="2" height="3" rx="1" transform="rotate(45 27 24.5)"/>
  </g>
  
  <!-- Outer Ring -->
  <circle cx="20" cy="20" r="19" fill="none" stroke="#3b82f6" stroke-width="1" opacity="0.5"/>
  
  <!-- Tech Dots -->
  <g fill="#3b82f6" opacity="0.7">
    <circle cx="8" cy="20" r="1"/>
    <circle cx="32" cy="20" r="1"/>
    <circle cx="20" cy="8" r="1"/>
    <circle cx="20" cy="32" r="1"/>
  </g>
</svg>
