<svg width="300" height="300" viewBox="0 0 300 300" xmlns="http://www.w3.org/2000/svg">
  <rect x="100" y="100" width="100" height="100" rx="5" fill="#1e293b" stroke="#3b82f6" stroke-width="2"/>
  <rect x="110" y="110" width="80" height="80" fill="#0f172a"/>
  <g stroke="#6b7280" stroke-width="2">
    <line x1="80" y1="120" x2="100" y2="120"/>
    <line x1="80" y1="140" x2="100" y2="140"/>
    <line x1="80" y1="160" x2="100" y2="160"/>
    <line x1="80" y1="180" x2="100" y2="180"/>
    <line x1="200" y1="120" x2="220" y2="120"/>
    <line x1="200" y1="140" x2="220" y2="140"/>
    <line x1="200" y1="160" x2="220" y2="160"/>
    <line x1="200" y1="180" x2="220" y2="180"/>
    <line x1="120" y1="80" x2="120" y2="100"/>
    <line x1="140" y1="80" x2="140" y2="100"/>
    <line x1="160" y1="80" x2="160" y2="100"/>
    <line x1="180" y1="80" x2="180" y2="100"/>
    <line x1="120" y1="200" x2="120" y2="220"/>
    <line x1="140" y1="200" x2="140" y2="220"/>
    <line x1="160" y1="200" x2="160" y2="220"/>
    <line x1="180" y1="200" x2="180" y2="220"/>
  </g>
  <rect x="125" y="125" width="50" height="50" fill="#3b82f6" opacity="0.3"/>
</svg>